<?xml version="1.0" encoding="utf-8"?>
<!-- Generator: Adobe Illustrator 19.1.0, SVG Export Plug-In . SVG Version: 6.00 Build 0)  -->
<!DOCTYPE svg PUBLIC "-//W3C//DTD SVG 1.1//EN" "http://www.w3.org/Graphics/SVG/1.1/DTD/svg11.dtd">
<svg version="1.1" id="Calque_1" xmlns="http://www.w3.org/2000/svg" xmlns:xlink="http://www.w3.org/1999/xlink" x="0px" y="0px"
	 viewBox="133 520 44 44" enable-background="new 133 520 44 44" xml:space="preserve">
<path d="M172,522c1.7,0,3,1.3,3,3v33h-1h-32c-1.7,0-3-1.3-3-3v-30c0-1.7,1.3-3,3-3H172 M172,520h-30c-2.8,0-5,2.2-5,5v30
	c0,2.8,2.2,5,5,5h32c-0.9,1.2-2.3,2-4,2h-30c-2.8,0-5-2.2-5-5v-32h-2v34c0,2.8,2.2,5,5,5h34c2.4,0,4.4-1.7,4.9-4h0.1v-1v-34
	C177,522.2,174.8,520,172,520L172,520z"/>
</svg>
