<?xml version="1.0" encoding="utf-8"?>
<!-- Generator: Adobe Illustrator 19.1.0, SVG Export Plug-In . SVG Version: 6.00 Build 0)  -->
<!DOCTYPE svg PUBLIC "-//W3C//DTD SVG 1.1//EN" "http://www.w3.org/Graphics/SVG/1.1/DTD/svg11.dtd">
<svg version="1.1" id="Calque_1" xmlns="http://www.w3.org/2000/svg" xmlns:xlink="http://www.w3.org/1999/xlink" x="0px" y="0px"
	 viewBox="-41 520 44 44" enable-background="new -41 520 44 44" xml:space="preserve">
<g>
	<path d="M-6,522c1.7,0,3,1.3,3,3v30c0,1.7-1.3,3-3,3h-32h-1v-33c0-1.7,1.3-3,3-3H-6 M-6,520h-30c-2.8,0-5,2.2-5,5v34v1h0.1
		c0.5,2.3,2.5,4,4.9,4h34c2.8,0,5-2.2,5-5v-34H1v32c0,2.8-2.2,5-5,5h-30c-1.6,0-3.1-0.8-4-2h32c2.8,0,5-2.2,5-5v-30
		C-1,522.2-3.2,520-6,520L-6,520z"/>
	<path d="M-10,532h-22v2h22V532L-10,532z M-13,536h-16v2h16V536L-13,536z"/>
</g>
</svg>
