<?xml version="1.0" encoding="utf-8"?>
<!-- Generator: Adobe Illustrator 19.1.0, SVG Export Plug-In . SVG Version: 6.00 Build 0)  -->
<!DOCTYPE svg PUBLIC "-//W3C//DTD SVG 1.1//EN" "http://www.w3.org/Graphics/SVG/1.1/DTD/svg11.dtd">
<svg version="1.1" id="Calque_1" xmlns="http://www.w3.org/2000/svg" xmlns:xlink="http://www.w3.org/1999/xlink" x="0px" y="0px"
	 viewBox="33 520 70 44" enable-background="new 33 520 70 44" xml:space="preserve">
<g>
	<path d="M100,522c0.6,0,1,0.4,1,1v34c0,0.6-0.4,1-1,1H73c-0.7,0-1.4,0.1-2,0.3l0-34.3c0-0.9,0.4-2,2-2H100 M63,522c1.6,0,2,1.1,2,2
		v34.3c-0.6-0.2-1.3-0.3-2-0.3H36c-0.6,0-1-0.4-1-1v-34c0-0.6,0.4-1,1-1H63 M100,520H73c-4,0-4,4-4,4v40c0,0,0-4,4-4h27
		c1.7,0,3-1.3,3-3v-34C103,521.3,101.7,520,100,520L100,520z M63,520H36c-1.7,0-3,1.3-3,3v34c0,1.7,1.3,3,3,3h27c4,0,4,4,4,4v-40
		C67,524,67,520,63,520L63,520z M100,562H72v2h28V562L100,562z M64,562H36v2h28V562L64,562z M69,564L69,564L69,564z M67,564L67,564
		L67,564z"/>
	<path d="M59,528v4H41v-4H59 M61,526H39v8h22V526L61,526z M51,536H39v2h12V536L51,536z M56,540H39v2h17V540L56,540z M61,544H39v2h22
		V544L61,544z M51,548H39v2h12V548L51,548z M56,552H39v2h17V552L56,552z"/>
	<path d="M95,528v4H77v-4H95 M97,526H75v8h22V526L97,526z M87,536H75v2h12V536L87,536z M92,540H75v2h17V540L92,540z M97,544H75v2h22
		V544L97,544z M87,548H75v2h12V548L87,548z M92,552H75v2h17V552L92,552z"/>
</g>
</svg>
