<?xml version="1.0" encoding="utf-8"?>
<!-- Generator: Adobe Illustrator 19.1.0, SVG Export Plug-In . SVG Version: 6.00 Build 0)  -->
<!DOCTYPE svg PUBLIC "-//W3C//DTD SVG 1.1//EN" "http://www.w3.org/Graphics/SVG/1.1/DTD/svg11.dtd">
<svg version="1.1" id="Calque_1" xmlns="http://www.w3.org/2000/svg" xmlns:xlink="http://www.w3.org/1999/xlink" x="0px" y="0px"
	 viewBox="-475.4 555.3 16 16" enable-background="new -475.4 555.3 16 16" xml:space="preserve">
<g enable-background="new    ">
	<path d="M-467.5,555.3c4.5,0,8,3.5,8,8c0,4.4-3.6,8-8,8c-4.4,0-8-3.6-8-8C-475.4,558.9-471.9,555.3-467.5,555.3z M-467.5,569.6
		c3.4,0,6.1-2.8,6.1-6.2c0-3.5-2.6-6.2-6.1-6.2c-3.4,0-6,2.7-6,6.2C-473.4,566.8-470.9,569.6-467.5,569.6z M-467.4,559.1
		c1.4,0,2.3,0.5,2.8,1.1c0.3,0.3,0.6,0.7,0.8,1.2l-1.7,0.8c-0.1-0.2-0.3-0.4-0.4-0.6c-0.3-0.3-0.8-0.6-1.4-0.6
		c-1.3,0-2.2,1.1-2.2,2.4c0,1.4,0.8,2.4,2.2,2.4c0.6,0,1.1-0.3,1.4-0.6c0.2-0.2,0.3-0.4,0.4-0.6l1.7,0.8c-0.2,0.4-0.5,0.8-0.8,1.2
		c-0.6,0.6-1.5,1.2-2.8,1.2c-2.4,0-4.2-1.9-4.2-4.3C-471.5,561-469.8,559.1-467.4,559.1z"/>
</g>
</svg>
