<?xml version="1.0" encoding="utf-8"?>
<!-- Generator: Adobe Illustrator 19.1.0, SVG Export Plug-In . SVG Version: 6.00 Build 0)  -->
<!DOCTYPE svg PUBLIC "-//W3C//DTD SVG 1.1//EN" "http://www.w3.org/Graphics/SVG/1.1/DTD/svg11.dtd">
<svg version="1.1" id="Calque_1" xmlns="http://www.w3.org/2000/svg" xmlns:xlink="http://www.w3.org/1999/xlink" x="0px" y="0px"
	 viewBox="-379 520 24 32" enable-background="new -379 520 24 32" xml:space="preserve">
<g>
	<g>
		<path d="M-360.8,522l3.8,3.8V550h-20v-28H-360.8 M-360,520h-19v32h24v-27L-360,520L-360,520z"/>
	</g>
	<g>
		<path d="M-359,530h-6v2h6V530L-359,530z M-367,530h-8v6h8V530L-367,530z M-359,534h-6v2h6V534L-359,534z M-359,538h-16v2h16V538
			L-359,538z M-359,542h-16v2h16V542L-359,542z M-359,546h-16v2h16V546L-359,546z"/>
	</g>
</g>
</svg>
