<?xml version="1.0" encoding="utf-8"?>
<!-- Generator: Adobe Illustrator 19.1.0, SVG Export Plug-In . SVG Version: 6.00 Build 0)  -->
<!DOCTYPE svg PUBLIC "-//W3C//DTD SVG 1.1//EN" "http://www.w3.org/Graphics/SVG/1.1/DTD/svg11.dtd">
<svg version="1.1" id="Calque_1" xmlns="http://www.w3.org/2000/svg" xmlns:xlink="http://www.w3.org/1999/xlink" x="0px" y="0px"
	 viewBox="-41 509 16 16" enable-background="new -41 509 16 16" xml:space="preserve">
<path d="M-28,525h-10c-1.7,0-3-1.3-3-3v-10c0-1.7,1.3-3,3-3h10c1.7,0,3,1.3,3,3v10C-25,523.7-26.3,525-28,525z M-37,514
	c-1.7,0-3,1.3-3,3s1.3,3,3,3s3-1.3,3-3S-35.3,514-37,514z M-29,514c-1.7,0-3,1.3-3,3s1.3,3,3,3s3-1.3,3-3S-27.3,514-29,514z"/>
</svg>
