<?xml version="1.0" encoding="utf-8"?>
<!-- Generator: Adobe Illustrator 19.1.0, SVG Export Plug-In . SVG Version: 6.00 Build 0)  -->
<!DOCTYPE svg PUBLIC "-//W3C//DTD SVG 1.1//EN" "http://www.w3.org/Graphics/SVG/1.1/DTD/svg11.dtd">
<svg version="1.1" id="Calque_1" xmlns="http://www.w3.org/2000/svg" xmlns:xlink="http://www.w3.org/1999/xlink" x="0px" y="0px"
	 viewBox="207 520 44 44" enable-background="new 207 520 44 44" xml:space="preserve">
<path d="M238,533v18h-18v-18H238 M209,520l-2,0v0h0l0,2h0l0,8l2,0l0-6.6l9,9v19.1l-9,9l0-7.6l-2,0l0,9h0l0,2h0v0l2,0l0,0l8,0l0-2
	l-6.6,0l9-9h19.1l9,9l-7.6,0l0,2l9,0v0l2,0v0h0l0-2h0l0-8l-2,0l0,6.6l-9-9v-19.1l9-9l0,7.6l2,0l0-9h0l0-2h0v0l-2,0l0,0l-8,0l0,2
	l6.6,0l-9,9h-19.1l-9-9l7.6,0l0-2L209,520L209,520L209,520z"/>
</svg>
