<?xml version="1.0" encoding="utf-8"?>
<!-- Generator: Adobe Illustrator 19.1.0, SVG Export Plug-In . SVG Version: 6.00 Build 0)  -->
<!DOCTYPE svg PUBLIC "-//W3C//DTD SVG 1.1//EN" "http://www.w3.org/Graphics/SVG/1.1/DTD/svg11.dtd">
<svg version="1.1" id="Calque_1" xmlns="http://www.w3.org/2000/svg" xmlns:xlink="http://www.w3.org/1999/xlink" x="0px" y="0px"
	 viewBox="-389 555 27 16" enable-background="new -389 555 27 16" xml:space="preserve">
<g>
	<path d="M-389,555v16h27v-16H-389z M-364,569h-23v-12h23V569z"/>
	<path d="M-382.7,564.1h1.2c1.6,0,2.4-1.1,2.4-2.3c0-1.1-0.7-2.3-2.4-2.3h-2.8v6.9h1.7V564.1z M-382.7,561h1.1
		c0.5,0,0.7,0.4,0.7,0.8c0,0.4-0.2,0.8-0.7,0.8h-1.1V561z"/>
	<path d="M-372.3,563c0-2-1.1-3.5-3.1-3.5h-2.7v6.9h2.7C-373.4,566.4-372.3,565-372.3,563z M-376.5,561h1c1,0,1.5,1,1.5,2
		c0,1-0.5,1.9-1.5,1.9h-1V561z"/>
	<polygon points="-369.4,563.8 -367.2,563.8 -367.2,562.3 -369.4,562.3 -369.4,561 -366.7,561 -366.7,559.6 -371.1,559.6 
		-371.1,566.4 -369.4,566.4 	"/>
</g>
</svg>
