<?xml version="1.0" encoding="utf-8"?>
<!-- Generator: Adobe Illustrator 19.1.0, SVG Export Plug-In . SVG Version: 6.00 Build 0)  -->
<!DOCTYPE svg PUBLIC "-//W3C//DTD SVG 1.1//EN" "http://www.w3.org/Graphics/SVG/1.1/DTD/svg11.dtd">
<svg version="1.1" id="Calque_1" xmlns="http://www.w3.org/2000/svg" xmlns:xlink="http://www.w3.org/1999/xlink" x="0px" y="0px"
	 viewBox="-587 509 49 44" enable-background="new -587 509 49 44" xml:space="preserve">
<g>
	<path d="M-538,525c0-1.1-0.9-2-2-2h-11c-1.3,0-2.4,0.8-2.8,2c-0.1,0-0.1,0-0.2,0c-0.2,0-0.4,0-0.6,0c-3.6-1-7-4.8-8.3-9.1
		c-0.1-0.3-0.2-0.7-0.3-1c-0.5-1.9-1-4.2-3-5.3c-0.3-0.1-0.7-0.4-1.2-0.5c-0.2,0-0.4-0.1-0.7-0.1c-0.1,0-0.2,0-0.2,0
		c-0.1,0-0.3,0-0.4,0c-0.2,0-0.4,0-0.5,0.1c-0.3,0.1-0.5,0.2-0.7,0.3c-0.1,0-0.2,0.1-0.3,0.1c-1.3,0.6-2.3,1.9-2.9,3.6
		c0,0,0,0,0,0.1c-0.7,2.3-0.5,4.8-0.2,7.2c0,0.9,0.3,1.7,0.6,2.5c0,0.1,0.1,0.3,0.2,0.4c-0.3,0-0.6,0.1-0.8,0.1c-0.9,0-1.7,0-2.6,0
		c-1.2,0-2.2,0-3.1,0.1c-0.5,0-1,0.1-1.6,0.2c-0.2,0-0.3,0.1-0.4,0.1c-0.5,0.1-0.9,0.2-1.4,0.5c-0.5,0.2-1.1,0.5-1.6,1
		c-1.9,1.6-1.6,3.7-1.5,5c0.1,1,0.1,1.2,0,1.4c0,0,0,0-0.1,0.1c-1.9,2-1.8,5.1,0.3,7.6c0,0.2-0.1,0.8-0.2,1.1
		c-0.3,1.3-0.9,3.7,1.4,5.2c0.1,0.1,0.3,0.2,0.5,0.2c0.3,0.1,0.4,0.1,0.6,1.5c0.1,0.7,0.2,1.5,0.6,2.3c0.1,0.2,0.2,0.3,0.3,0.5
		c2,2.6,5.5,2.7,8,2.9c0.4,0,0.8,0,1.1,0.1c0.1,0,0.1,0,0.2,0c0,0,0.1,0,0.1,0c1.1-0.1,2.2-0.1,3.2-0.1c2.1,0,4.2-0.1,6.6-0.5
		c2-0.3,3.4-1.2,4.7-2c0.9-0.6,1.7-1.1,2.7-1.4c0.1,0,0.1,0,0.2,0c0.2,0,0.4,0,0.6,0c0.2,0,0.4,0,0.6,0c0.1,0,0.2,0,0.3,0
		c0,0,0.1,0,0.1,0c0.4,1.1,1.5,2,2.8,2h11c1.1,0,2-0.9,2-2v-1l0-1.2v-9.9V527v-1L-538,525z M-540,527v9.9v9.9l0,1.2v1h-11
		c-0.5,0-1-0.6-1-1v-11v-8c-0.1,0-0.1,0-0.2,0c-0.4,0-0.8,0-1.2,0c-0.2,0-0.4,0-0.6,0v8v10c-0.1,0-0.2,0-0.3,0c-0.4,0-0.8,0-1.2,0
		c-0.2,0-0.3,0-0.5,0c-2.9,0.6-4.4,3-7.4,3.4c-3.3,0.6-6.2,0.4-9.6,0.6c-2.5-0.2-6,0-7.7-2.2c-0.7-1.8-0.1-4.2-2.3-5
		c-2-1.4,0.5-4-0.6-5.8c-1.3-1.4-2.1-3.6-0.6-5.2c1.9-1.8-0.7-4.5,1.5-6.3c0.3-0.3,0.7-0.5,1.1-0.7c0.4-0.2,0.8-0.3,1.2-0.4
		c0,0,0.1-0.1,0.1-0.1c0.4-0.1,0.9-0.1,1.3-0.1c1-0.1,2-0.1,3.1-0.1c0.9,0,1.7,0,2.6,0c0.8,0,1.6-0.2,2.4-0.3
		c1.5-1.2-0.4-3.2-0.4-4.8c-0.3-2.2-0.5-4.5,0.1-6.5c0.3-1,1-2,1.9-2.4c0.1-0.1,0.2-0.1,0.2-0.1c0.1,0,0.2-0.1,0.2-0.1c0,0,0,0,0,0
		c0.1,0,0.1,0,0.2,0.1c0,0,0,0,0,0c0,0,0.1,0,0.1,0c0,0,0,0,0,0c0.1,0,0.3,0,0.4,0c0.1,0,0.2,0,0.4,0c0.2,0,0.4,0.2,0.6,0.2
		c1.5,0.8,1.8,3.3,2.3,5.1c1.3,4.8,5.2,9.4,9.9,10.6c0.3,0,0.6,0,0.9,0c0.6,0,1.1,0,1.8,0c0.1,0,0.2,0,0.3,0v-1c0-0.6,0.5-1,1-1h11
		l0,1V527z"/>
	<circle cx="-546" cy="543" r="2"/>
</g>
</svg>
