<?xml version="1.0" encoding="utf-8"?>
<!-- Generator: Adobe Illustrator 19.1.0, SVG Export Plug-In . SVG Version: 6.00 Build 0)  -->
<!DOCTYPE svg PUBLIC "-//W3C//DTD SVG 1.1//EN" "http://www.w3.org/Graphics/SVG/1.1/DTD/svg11.dtd">
<svg version="1.1" id="Calque_1" xmlns="http://www.w3.org/2000/svg" xmlns:xlink="http://www.w3.org/1999/xlink" x="0px" y="0px"
	 viewBox="-165 509 10 16" enable-background="new -165 509 10 16" xml:space="preserve">
<path d="M-157.5,522c-0.1,0-2.4,0-2.4,0h-2.5c0-4.5-2.5-5.2-2.5-7.9c0-2.4,1.7-5.1,5.1-5.1c3.3,0,4.9,2.8,4.9,5.1
	C-155,516.8-157.5,517.5-157.5,522z M-158,524.5c0,0.3-0.3,0.5-0.7,0.5h-2.7c-0.4,0-0.7-0.2-0.7-0.5s0-0.5,0-0.5h4
	C-158,524-158,524.2-158,524.5z"/>
</svg>
