<?xml version="1.0" encoding="utf-8"?>
<!-- Generator: Adobe Illustrator 19.1.0, SVG Export Plug-In . SVG Version: 6.00 Build 0)  -->
<!DOCTYPE svg PUBLIC "-//W3C//DTD SVG 1.1//EN" "http://www.w3.org/Graphics/SVG/1.1/DTD/svg11.dtd">
<svg version="1.1" id="Calque_1" xmlns="http://www.w3.org/2000/svg" xmlns:xlink="http://www.w3.org/1999/xlink" x="0px" y="0px"
	 viewBox="-433 520 24 32" enable-background="new -433 520 24 32" xml:space="preserve">
<g>
	<path fill-opacity="0" d="M-409,546c0,4.1-6.2,6-12,6s-12-1.9-12-6c0-3.4,4.3-5.3,9-5.8v2c-4,0.5-7,2-7,3.8c0,2.2,4.5,4,10,4
		c5.5,0,10-1.8,10-4c0-1.8-3-3.3-7-3.8v-2C-413.3,540.7-409,542.6-409,546z M-421,520c-3.9,0-7,3.1-7,7c0,3.5,2.6,6.4,6,6.9V548h2
		v-14.1c3.4-0.5,6-3.4,6-6.9C-414,523.1-417.1,520-421,520z"/>
	<path d="M-421,522c2.8,0,5,2.2,5,5c0,2.5-1.8,4.6-4.3,4.9l-0.7,0.1l-0.7-0.1c-2.4-0.4-4.3-2.5-4.3-4.9
		C-426,524.2-423.8,522-421,522 M-421,520c-3.9,0-7,3.1-7,7c0,3.5,2.6,6.4,6,6.9V548h2v-14.1c3.4-0.5,6-3.4,6-6.9
		C-414,523.1-417.1,520-421,520L-421,520z M-418,540.2v2c4,0.5,7,2,7,3.8c0,2.2-4.5,4-10,4c-5.5,0-10-1.8-10-4c0-1.8,3-3.3,7-3.8v-2
		c-4.7,0.5-9,2.4-9,5.8c0,4.1,6.2,6,12,6s12-1.9,12-6C-409,542.6-413.3,540.7-418,540.2L-418,540.2z"/>
</g>
</svg>
