<?xml version="1.0" encoding="utf-8"?>
<!-- Generator: Adobe Illustrator 19.1.0, SVG Export Plug-In . SVG Version: 6.00 Build 0)  -->
<!DOCTYPE svg PUBLIC "-//W3C//DTD SVG 1.1//EN" "http://www.w3.org/Graphics/SVG/1.1/DTD/svg11.dtd">
<svg version="1.1" id="Calque_1" xmlns="http://www.w3.org/2000/svg" xmlns:xlink="http://www.w3.org/1999/xlink" x="0px" y="0px"
	 viewBox="-325 520.2 18 32" enable-background="new -325 520.2 18 32" xml:space="preserve">
<g>
	<g>
		<path opacity="0" fill="#494B4D" d="M-316,541.2c-2.2,0-4-1.8-4-4v-12c0-2.2,1.8-4,4-4s4,1.8,4,4v12
			C-312,539.4-313.8,541.2-316,541.2z"/>
		<path d="M-316,522.2c1.7,0,3,1.3,3,3v12c0,1.7-1.3,3-3,3s-3-1.3-3-3v-12C-319,523.6-317.7,522.2-316,522.2 M-316,520.2
			c-2.8,0-5,2.2-5,5v12c0,2.8,2.2,5,5,5s5-2.2,5-5v-12C-311,522.4-313.2,520.2-316,520.2L-316,520.2z"/>
	</g>
	<g>
		<path opacity="0" fill="#494B4D" d="M-317,551.2c0.6,0,1-0.4,1-1v-4c0-0.5-0.4-0.9-0.9-1c-3-0.3-5.5-2.3-6.5-4.9
			c1.1,2.8,3.8,4.8,7.1,5l0.7,0c3.6-0.2,6.6-2.7,7.4-6c-0.8,3.2-3.5,5.6-6.9,6c-0.5,0.1-0.9,0.5-0.9,1v4c0,0.6,0.4,1,1,1H-317z"/>
		<path d="M-307,532.2h-2v5h0c0,3.8-3,6.8-6.7,7h-0.7c-3.7-0.2-6.7-3.2-6.7-7h0v-5h-2v5h0c0,4.6,3.5,8.5,8,9v4h-6v2h6h2h6v-2h-6v-4
			c4.5-0.5,8-4.3,8-9h0V532.2L-307,532.2z"/>
	</g>
</g>
</svg>
