<?xml version="1.0" encoding="utf-8"?>
<!-- Generator: Adobe Illustrator 19.1.0, SVG Export Plug-In . SVG Version: 6.00 Build 0)  -->
<!DOCTYPE svg PUBLIC "-//W3C//DTD SVG 1.1//EN" "http://www.w3.org/Graphics/SVG/1.1/DTD/svg11.dtd">
<svg version="1.1" id="Calque_1" xmlns="http://www.w3.org/2000/svg" xmlns:xlink="http://www.w3.org/1999/xlink" x="0px" y="0px"
	 viewBox="-430.1 555 17 16" enable-background="new -430.1 555 17 16" xml:space="preserve">
<path d="M-414.5,556.5c-1.9-1.9-4.9-1.9-6.8,0l-7.8,8c-1.4,1.5-1.4,4,0,5.5s3.8,1.5,5.3,0l7.8-8c1-1.1,1-2.8,0-3.9
	c-1-1.1-2.7-1.1-3.8,0l-5.8,6.1c-0.2,0.2-0.2,0.6,0,0.8c0.2,0.2,0.5,0.2,0.8,0l5.8-6.1c0.6-0.6,1.6-0.6,2.3,0c0.6,0.6,0.6,1.7,0,2.3
	l-7.8,8c-1,1.1-2.7,1.1-3.8,0c-1-1.1-1-2.8,0-3.9l7.7-7.9c1.5-1.5,3.8-1.5,5.3,0c1.5,1.5,1.5,4,0,5.5l-5.8,6c-0.2,0.2-0.2,0.6,0,0.8
	c0.2,0.2,0.5,0.2,0.8,0l5.8-6.1C-412.6,561.5-412.6,558.4-414.5,556.5z"/>
</svg>
