<?xml version="1.0" encoding="utf-8"?>
<!-- Generator: Adobe Illustrator 19.1.0, SVG Export Plug-In . SVG Version: 6.00 Build 0)  -->
<!DOCTYPE svg PUBLIC "-//W3C//DTD SVG 1.1//EN" "http://www.w3.org/Graphics/SVG/1.1/DTD/svg11.dtd">
<svg version="1.1" id="Calque_1" xmlns="http://www.w3.org/2000/svg" xmlns:xlink="http://www.w3.org/1999/xlink" x="0px" y="0px"
	 viewBox="-541 555 35 16" enable-background="new -541 555 35 16" xml:space="preserve">
<path d="M-528,559h-3v-1h-2v-1h-8v12h8v-1h2v-1h3c0,0,0.2,4,6,4c5.8,0,8.7-6,15-6l1-1l0,0h-13c-0.2,0.7-1.2,1-2,1c-1,0-2-1-2-2
	s1-2,2-2c0.8,0,1.8,0.2,2,1h13l0,0l-1-1c-6.3,0-9.2-6-15-6C-527.8,555-528,559-528,559z"/>
</svg>
