<?xml version="1.0" encoding="utf-8"?>
<!-- Generator: Adobe Illustrator 19.1.0, SVG Export Plug-In . SVG Version: 6.00 Build 0)  -->
<!DOCTYPE svg PUBLIC "-//W3C//DTD SVG 1.1//EN" "http://www.w3.org/Graphics/SVG/1.1/DTD/svg11.dtd">
<svg version="1.1" id="Calque_1" xmlns="http://www.w3.org/2000/svg" xmlns:xlink="http://www.w3.org/1999/xlink" x="0px" y="0px"
	 viewBox="-211 509 16 16" enable-background="new -211 509 16 16" xml:space="preserve">
<path d="M-195,522.5c0,0.5-0.2,0.9-0.5,1.3l-0.5,0.4c-2,2-6.6,0.4-10.6-3.6c-2.7-2.7-4.4-5.9-4.4-8.3c0-1,0.3-1.8,0.8-2.3l0.4-0.4
	c0.3-0.3,0.8-0.5,1.3-0.5s0.9,0.2,1.3,0.5l1.8,1.8c0.7,0.7,0.7,1.8,0,2.5l-0.4,0.4c-0.1,0.1-0.2,0.3-0.2,0.6c0,0.4,0.3,1.5,2,3.2
	c2.1,2.1,3.3,2.3,3.8,1.8l0.4-0.4c0.7-0.7,1.8-0.7,2.5,0l1.8,1.8C-195.2,521.5-195,522-195,522.5z"/>
</svg>
