<?xml version="1.0" encoding="utf-8"?>
<!-- Generator: Adobe Illustrator 19.1.0, SVG Export Plug-In . SVG Version: 6.00 Build 0)  -->
<!DOCTYPE svg PUBLIC "-//W3C//DTD SVG 1.1//EN" "http://www.w3.org/Graphics/SVG/1.1/DTD/svg11.dtd">
<svg version="1.1" id="Calque_1" xmlns="http://www.w3.org/2000/svg" xmlns:xlink="http://www.w3.org/1999/xlink" x="0px" y="0px"
	 viewBox="-186.6 518.6 53 44" enable-background="new -186.6 518.6 53 44" xml:space="preserve">
<g>
	<path d="M-186.6,546.1c0-8,2-14.2,5.9-18.6s9.5-7.4,16.8-8.8v8.1c-5.7,1.6-9.5,4.5-11.4,8.8c-1.1,2.3-1.5,4.5-1.3,6.5h13v20.5h-23
		V546.1z"/>
	<path d="M-156.6,546.1c0-8,2-14.2,5.9-18.6s9.5-7.4,16.8-8.8v8.1c-5.7,1.6-9.5,4.5-11.4,8.8c-1.1,2.3-1.5,4.5-1.3,6.5h13v20.5h-23
		V546.1z"/>
</g>
</svg>
