<?xml version="1.0" encoding="utf-8"?>
<!-- Generator: Adobe Illustrator 19.1.0, SVG Export Plug-In . SVG Version: 6.00 Build 0)  -->
<!DOCTYPE svg PUBLIC "-//W3C//DTD SVG 1.1//EN" "http://www.w3.org/Graphics/SVG/1.1/DTD/svg11.dtd">
<svg version="1.1" id="Calque_1" xmlns="http://www.w3.org/2000/svg" xmlns:xlink="http://www.w3.org/1999/xlink" x="0px" y="0px"
	 viewBox="54 509 16 16" enable-background="new 54 509 16 16" xml:space="preserve">
<path d="M54,517.5c2,0,3.9,0.8,5.3,2.2c1.4,1.4,2.2,3.3,2.2,5.3h3.1c0-5.8-4.7-10.6-10.6-10.6V517.5z M54,512.1
	c7.1,0,12.9,5.8,12.9,12.9H70c0-8.8-7.2-16-16-16V512.1z M58.3,522.9c0,1.2-1,2.1-2.1,2.1c-1.2,0-2.1-1-2.1-2.1c0-1.2,1-2.1,2.1-2.1
	C57.3,520.7,58.3,521.7,58.3,522.9z"/>
</svg>
