<?xml version="1.0" encoding="utf-8"?>
<!-- Generator: Adobe Illustrator 19.1.0, SVG Export Plug-In . SVG Version: 6.00 Build 0)  -->
<!DOCTYPE svg PUBLIC "-//W3C//DTD SVG 1.1//EN" "http://www.w3.org/Graphics/SVG/1.1/DTD/svg11.dtd">
<svg version="1.1" id="Calque_1" xmlns="http://www.w3.org/2000/svg" xmlns:xlink="http://www.w3.org/1999/xlink" x="0px" y="0px"
	 viewBox="-277 520 42 32" enable-background="new -277 520 42 32" xml:space="preserve">
<g>
	<path d="M-256,522.2l16.3,7.7l-16.4,7.9l-8.1-3.9c-0.3-0.1-0.6-0.2-0.9-0.2c-0.1,0-0.2,0-0.3,0c-0.2-0.3-0.5-0.6-0.9-0.8l-6.2-3
		L-256,522.2 M-244,539v3h-6.9L-244,539 M-266.1,546.4c0.1,0.1,0.3,0.2,0.5,0.2c0.7,0.2,1.2,0.9,1.2,1.6c0,0.9-0.8,1.7-1.8,1.7
		s-1.8-0.8-1.8-1.7c0-0.8,0.5-1.5,1.2-1.6C-266.5,546.6-266.3,546.5-266.1,546.4 M-256,520l-21,10l10,4.8l-0.2,9.9
		c-1.6,0.4-2.8,1.9-2.8,3.6c0,2,1.7,3.7,3.8,3.7c2.1,0,3.8-1.7,3.8-3.7c0-1.6-1.1-3-2.6-3.5l0-9l9,4.3l21-10.2L-256,520L-256,520z
		 M-242,536l-14,6l-7-3.1v5.1h21V536L-242,536z"/>
</g>
</svg>
