<?xml version="1.0" encoding="utf-8"?>
<!-- Generator: Adobe Illustrator 19.1.0, SVG Export Plug-In . SVG Version: 6.00 Build 0)  -->
<!DOCTYPE svg PUBLIC "-//W3C//DTD SVG 1.1//EN" "http://www.w3.org/Graphics/SVG/1.1/DTD/svg11.dtd">
<svg version="1.1" id="Calque_1" xmlns="http://www.w3.org/2000/svg" xmlns:xlink="http://www.w3.org/1999/xlink" x="0px" y="0px"
	 viewBox="-350 510 16 16" enable-background="new -350 510 16 16" xml:space="preserve">
<path d="M-343,512c2.8,0,5,2.2,5,5c0,1.1-0.3,2.1-1,3c0,0-0.5,0.7-1.1,1.1c-0.9,0.6-1.9,1-3,1c-2.8,0-5-2.2-5-5S-345.8,512-343,512
	 M-343,510c-3.9,0-7,3.1-7,7c0,3.9,3.1,7,7,7c1.6,0,3-0.5,4.1-1.4l3.1,3.1c0.2,0.2,0.5,0.3,0.7,0.3c0.3,0,0.5-0.1,0.7-0.3
	c0.4-0.4,0.4-1.1,0-1.5l-3.1-3.1c0.9-1.2,1.4-2.6,1.4-4.1C-336,513.1-339.1,510-343,510L-343,510z"/>
</svg>
